# xmcd
# 
# Track frame offsets:
#     150
#     49305
#     88200
#     112523
#     190965
# 
# Disc length: 3132
# 
# Revision: 6
# Processed by: cddbd v1.5.2PL0 Copyright (c) Steve Scherf et al.
# Submitted via: fre:ac v1.0.31
# 
DISCID=3a0c3a05
DTITLE=Tomita - Holst: The Planets
DYEAR=1976
DGENRE=Classical
TTITLE0=Mars, The Bringer of War
TTITLE1=Venus, The Bringer of Peace
TTITLE2=Mercury, The Winged Messenger
TTITLE3=Jupiter, The Bringer of Jollity and Saturn, The Bringer of Old Age
TTITLE4=Uranus, The Magician and Neptune, The Mystic
EXTD=
EXTT0=
EXTT1=
EXTT2=
EXTT3=
EXTT4=
PLAYORDER=
